<?xml version="1.0" encoding="UTF-8"?>
<!DOCTYPE svg PUBLIC "-//W3C//DTD SVG 1.1//EN" "http://www.w3.org/Graphics/SVG/1.1/DTD/svg11.dtd">
<!-- Creator: CorelDRAW 2019 (64-Bit) -->
<svg xmlns="http://www.w3.org/2000/svg" xml:space="preserve" width="48.1964mm" height="105.214mm" version="1.1" style="shape-rendering:geometricPrecision; text-rendering:geometricPrecision; image-rendering:optimizeQuality; fill-rule:evenodd; clip-rule:evenodd"
viewBox="0 0 1809.04 3949.19"
 xmlns:xlink="http://www.w3.org/1999/xlink">
 <defs>
  <style type="text/css">
   <![CDATA[
    .fil1 {fill:#2A3357}
    .fil0 {fill:#2B334A}
    .fil8 {fill:#353839}
    .fil6 {fill:#AA9074}
    .fil2 {fill:#BABCD3}
    .fil9 {fill:#CED0E0}
    .fil7 {fill:#D898AE}
    .fil4 {fill:#F5F5FA}
    .fil5 {fill:#FBFBFE}
    .fil3 {fill:#FEC769}
   ]]>
  </style>
 </defs>
 <g id="Capa_x0020_1">
  <metadata id="CorelCorpID_0Corel-Layer"/>
  <path class="fil0" d="M1187.39 883.94c135.78,44.08 256.27,185.52 321.01,296.61 45.03,77.25 44.33,142.14 72.45,232.28 35.83,114.88 100.99,86.76 136.75,179 -14.98,69.87 -30.27,55.72 -72.91,92.69 -1.02,79.98 40.09,76.56 29.64,180.35 -25.98,282.54 -63.06,498.76 -109.59,675.29 -121.03,459.2 -509.59,853.59 -661.73,1041.83 -81.07,-107.95 -326.63,-394.04 -581.98,-984.36 -68.56,-158.5 -123.58,-780.85 -112.1,-953.29 50.21,-754.18 442.97,-755.63 462.76,-833.76 -5.36,-88.32 -71.9,-79.01 -52.22,-171.47 112.22,43.56 47.72,135.21 156.61,154.16 41.16,-85.67 5.6,-277.76 126.3,-239.7 62.94,134.12 -62.51,153.34 -18.72,245.97 40.06,22.3 107.32,22.79 161.97,35 52.47,11.73 93.54,31.85 141.76,49.4zm147.2 -21.72c-59.32,-119.78 -29.34,-383.26 5.11,-524.97 233.68,-9.4 153.08,503.37 -5.11,524.97zm-913.22 -13.4c-140.15,-11.13 -284.46,-508.9 -52.97,-504.59 53.95,62.06 39.15,167.05 46.83,252.95 6.84,76.54 39.45,177.72 6.14,251.64zm-82.63 103.25c-121.03,23.31 -221.92,-177.97 -243.18,-306.01 -31.25,-188.2 13.19,-321.4 103.77,-441.43 89.54,-118.65 276.15,-179.68 310.71,53.34 15.18,102.32 30.58,441.42 19.46,530.62 -21.5,-19.97 -26.92,-26.82 -35.44,-77.97 -14.37,-86.26 -8.31,-219.46 -19.68,-311.18 -43.14,-347.93 -495.64,-62.47 -212.67,412.05 72.18,121.05 88.7,75.79 77.04,140.58zm886.54 -159.18c-65.5,-66.24 -43.26,-392.53 -37.14,-512.63 11.44,-224.44 169.14,-232.6 293.21,-105.95 249.42,254.59 155.88,714.26 -23.07,774.75l-38.89 -24.02c32.21,-96.6 97.68,-165.27 126.7,-302.15 76.97,-363.12 -281.5,-511.49 -299.18,-235.97 -7.94,123.75 19.91,302.3 -21.63,405.98zm518.23 1153.71c17.16,-95.74 14.34,-92.88 9.98,-192.2 -4.02,-91.62 41.38,-27 54.27,-140.52 15.29,-134.61 -112.5,-115.44 -153.37,-261.41 -15.91,-56.81 -27.72,-111.2 -47.65,-164.04 -23.24,-61.61 -57.5,-100.01 -74.33,-152.73 52.97,-89.4 190.26,-147.63 192.74,-450.17 1.61,-196.63 -73.68,-373.15 -178.14,-476.81 -97.83,-97.08 -345.42,-169.83 -420.35,16.62 -48.45,120.55 -23.04,471.2 -22.94,621.3l-111.53 -16.46c3.92,-110.44 23.88,-219.62 -61.78,-270.49 -107.68,-63.94 -173.99,50.24 -201.51,118.4 -46.3,-10.67 -74.83,-33.92 -111.67,-52.09 -3.88,-185.05 3.4,-395.22 -125.76,-487.66 -161.56,-115.64 -333.39,59.12 -390.65,146.7 -204.86,313.36 -70.8,733.51 163.22,859.53 -22.72,230.21 -150.3,192.2 -145.57,838.6 1.15,157.98 27.46,310.59 29.41,463.97 51.25,271.52 195.91,646.13 745.87,1360.44 549,-609.26 787.58,-898.13 849.77,-1760.97z"/>
  <path class="fil1" d="M597.29 2161.9c-73.8,-60.72 -68.99,-256.96 -32.16,-346.22 167.18,-56.75 198.86,-6.22 290.39,-276.8l122 -0.67c52.97,80.73 57.07,141.49 119.32,199.21 55.63,51.59 164.25,64.32 192.07,103.25 16.82,11.56 34.33,16.11 41.64,73.09 2.76,21.48 1.47,62.78 0.02,85.11 -10.28,157.44 -81.47,292.04 -215.14,366.31 -209.18,116.22 -470.03,-30.91 -518.13,-203.28zm287.6 309.4c202.39,9.53 340.66,-49.69 425.66,-175.76 118.94,-176.43 73,-281 74.1,-482.96 151.82,-42.82 218.43,-184.54 149.92,-327.67 -42.14,-88.03 -42.45,-52.13 -87.48,-98.44 -126.97,2.87 -297.78,-19.85 -443.09,-19.88 -154.08,-0.03 -309.9,0.52 -463.94,2.03 -154.7,1.52 -269.87,29.86 -270.82,196.7 -1.04,181.95 109.41,180.48 206.82,251.61 -12.1,214.86 -15.56,292.53 91.41,449.71 69.15,101.61 148.05,168.03 317.42,204.65z"/>
  <path class="fil2" d="M1447.08 1386.47c45.03,46.31 45.34,10.41 87.48,98.44 68.51,143.13 1.9,284.85 -149.92,327.67 -1.1,201.96 44.84,306.53 -74.1,482.96 -85,126.08 -223.26,185.3 -425.66,175.76l36.75 13.45c347.62,84.76 494.55,-86.99 527.2,-93.76 18.52,196.42 -283.15,692.4 -525.13,1133.77 2.09,7.78 8.02,11.44 17.03,11.78 170.82,-201.92 511.97,-571.38 623.98,-996.37 43.14,-163.67 78.16,-361.46 103.73,-614.58 1.87,-20.23 3.82,-40.47 5.86,-60.71 10.46,-103.79 -30.65,-100.37 -29.64,-180.35 42.64,-36.97 57.92,-22.82 72.91,-92.69 -35.75,-92.23 -100.92,-64.12 -136.75,-179 -28.12,-90.14 -27.42,-155.03 -72.45,-232.28 -64.74,-111.09 -185.23,-252.53 -321.01,-296.61 20.87,93.41 70.39,107.78 87.28,252.73l101.26 12.43 -4 115.31c87.34,3.08 142.13,31.45 116.2,124.06l-41.04 -1.99z"/>
  <path class="fil3" d="M597.29 2161.9c55.48,51.69 116.76,92.02 201.52,85.3l14.21 -37.73c209.46,135.56 95.26,-294.71 75.38,-314.97 -54.98,-56.03 -69.16,10.14 -68.65,-116.37 89,-12.33 139.19,-16.5 230.1,7.28l-3.5 76.04c-24.88,13.94 -53.74,23.14 -86.69,44.76 -15.96,108.99 -24,247.04 19.03,333.24 52.92,6.94 31.69,9.21 75.5,-15.4 16.94,-31.99 41.9,-28.38 85.62,-59.74 101.37,-72.7 135.73,-196.49 149.1,-323.65 -27.82,-38.94 -136.44,-51.66 -192.07,-103.25 -62.25,-57.72 -66.35,-118.48 -119.32,-199.21l-122 0.67c-91.53,270.58 -123.21,220.05 -290.39,276.8 -36.83,89.27 -41.64,285.51 32.16,346.22z"/>
  <path class="fil4" d="M1225.29 792.88c41.54,-103.68 13.69,-282.23 21.63,-405.98 17.68,-275.51 376.15,-127.15 299.18,235.97 -29.01,136.88 -94.49,205.55 -126.7,302.15l38.89 24.02c178.95,-60.49 272.49,-520.16 23.07,-774.75 -124.07,-126.65 -281.77,-118.48 -293.21,105.95 -6.12,120.1 -28.36,446.39 37.14,512.63z"/>
  <path class="fil5" d="M338.75 952.06c11.65,-64.78 -4.86,-19.53 -77.04,-140.58 -282.97,-474.52 169.53,-759.98 212.67,-412.05 11.37,91.72 5.31,224.92 19.68,311.18 8.52,51.16 13.94,58.01 35.44,77.97 11.11,-89.2 -4.29,-428.29 -19.46,-530.62 -34.56,-233.03 -221.16,-172 -310.71,-53.34 -90.58,120.02 -135.02,253.23 -103.77,441.43 21.26,128.03 122.15,329.32 243.18,306.01z"/>
  <path class="fil6" d="M1054.19 2224.06l-1.37 52.42c-68.77,10.44 -33.15,6.01 -77.3,-7.12 -100.98,-30.02 -14.72,53.1 -176.71,-22.16 -84.76,6.71 -146.04,-33.61 -201.52,-85.3 48.1,172.37 308.96,319.5 518.13,203.28 133.67,-74.27 204.86,-208.87 215.14,-366.31 1.46,-22.33 2.75,-63.63 -0.02,-85.11 -7.32,-56.98 -24.83,-61.52 -41.64,-73.09 -13.37,127.16 -47.72,250.95 -149.1,323.65 -43.72,31.36 -68.68,27.75 -85.62,59.74z"/>
  <path class="fil7" d="M1334.59 862.21c158.19,-21.6 238.78,-534.37 5.11,-524.97 -34.45,141.72 -64.43,405.19 -5.11,524.97z"/>
  <path class="fil7" d="M421.38 848.81c33.31,-73.92 0.71,-175.1 -6.14,-251.64 -7.68,-85.89 7.12,-190.89 -46.83,-252.95 -231.5,-4.31 -87.19,493.45 52.97,504.59z"/>
  <path class="fil8" d="M798.81 2247.2c161.99,75.26 75.73,-7.87 176.71,22.16 44.15,13.13 8.53,17.56 77.3,7.12l1.37 -52.42c-43.81,24.61 -22.58,22.34 -75.5,15.4 -43.02,-86.2 -34.99,-224.26 -19.03,-333.24 32.96,-21.62 61.81,-30.82 86.69,-44.76l3.5 -76.04c-90.92,-23.78 -141.1,-19.62 -230.1,-7.28 -0.51,126.5 13.67,60.34 68.65,116.37 19.87,20.26 134.08,450.52 -75.38,314.97l-14.21 37.73z"/>
  <ellipse class="fil9" cx="908.67" cy="3859.82" rx="297.93" ry="89.38"/>
 </g>
</svg>
